<svg width="414" height="160" viewBox="0 0 414 160" fill="none" xmlns="http://www.w3.org/2000/svg">
<path d="M93.1549 65.6742C86.0965 58.9834 77.2435 54.1564 67.3898 51.9843C64.7491 55.6562 60.4317 58.0485 55.5538 58.0485C50.6759 58.0485 46.3585 55.6562 43.7178 51.9843C33.8641 54.1564 25.0111 58.9834 17.9527 65.6742C23.0767 74.3059 31.1064 81.0207 40.6994 84.4803C44.8806 81.4826 50.0104 79.7171 55.5538 79.7171C61.0972 79.7171 66.227 81.4826 70.4082 84.4803C80.0011 81.0207 88.0309 74.3059 93.1549 65.6742Z" fill="url(#paint0_linear_200_1487)"/>
<path fill-rule="evenodd" clip-rule="evenodd" d="M93.1549 65.6742C86.0965 58.9834 77.2435 54.1564 67.3898 51.9843C69.1003 49.6058 70.1072 46.6905 70.1072 43.5406C70.1072 35.5282 63.5914 29.0328 55.5538 29.0328C47.5162 29.0328 41.0004 35.5282 41.0004 43.5406C41.0004 46.6905 42.0073 49.6058 43.7178 51.9843C33.8641 54.1564 25.0111 58.9834 17.9527 65.6742C14.103 59.1892 11.8935 51.6221 11.8935 43.5406C11.8935 19.5032 31.4409 0.0170898 55.5538 0.0170898C79.6667 0.0170898 99.2141 19.5032 99.2141 43.5406C99.2141 51.6221 97.0046 59.1892 93.1549 65.6742ZM70.4082 84.4803C80.0011 81.0207 88.0309 74.3059 93.1549 65.6742C103.611 75.5856 110.129 89.5869 110.129 105.106C110.129 135.153 85.695 159.51 55.5538 159.51C25.4126 159.51 0.978394 135.153 0.978394 105.106C0.978394 89.5869 7.49658 75.5856 17.9527 65.6742C23.0767 74.3059 31.1064 81.0207 40.6994 84.4803C34.2713 89.089 30.0853 96.6101 30.0853 105.106C30.0853 119.128 41.4879 130.495 55.5538 130.495C69.6197 130.495 81.0223 119.128 81.0223 105.106C81.0223 96.6101 76.8363 89.089 70.4082 84.4803Z" fill="url(#paint1_linear_200_1487)"/>
<path d="M147.022 22.5333H128.631V42.5186H154.905L121.766 107.421C134.059 112.67 143.066 101.998 145.911 95.9543V150.766H166.476V86.5853C175.973 86.2085 181.578 78.7386 183.194 75.0507L166.913 65.0766L180.422 41.5556V22.5333H167.621L164.329 8.76138L144.673 10.5552L147.022 22.5333Z" fill="url(#paint2_linear_200_1487)"/>
<path d="M206.297 48.8269V9.66521H231V48.8269H260.193V70.8495H231V126.633H263.588V149.029H171.291V126.633H206.297V70.8495H179.078V48.8269H206.297Z" fill="url(#paint3_linear_200_1487)"/>
<path fill-rule="evenodd" clip-rule="evenodd" d="M408.493 36.0524V13.2767H285.619V148.685L413.147 148.249V125.833L310.002 126.269V36.0524H408.493ZM335.409 38.3796L318.288 56.1047L343.204 81.0342L316.283 108.324C323 116.155 337.672 119.694 347.824 110.025C352.45 105.619 359.983 98.2944 359.983 98.2944C359.983 98.2944 363.052 101.344 370.783 108.783C378.514 116.222 395.298 117.574 403.466 107.269L377.14 81.0342L401.363 56.1047L384.269 38.9109L359.983 63.2756L335.409 38.3796Z" fill="url(#paint4_linear_200_1487)"/>
<defs>
<linearGradient id="paint0_linear_200_1487" x1="413.147" y1="79.7636" x2="185.946" y2="-125.236" gradientUnits="userSpaceOnUse">
<stop stop-color="#D018F5"/>
<stop offset="1" stop-color="#FA3296"/>
</linearGradient>
<linearGradient id="paint1_linear_200_1487" x1="413.147" y1="79.7636" x2="185.946" y2="-125.236" gradientUnits="userSpaceOnUse">
<stop stop-color="#D018F5"/>
<stop offset="1" stop-color="#FA3296"/>
</linearGradient>
<linearGradient id="paint2_linear_200_1487" x1="413.147" y1="79.7636" x2="185.946" y2="-125.236" gradientUnits="userSpaceOnUse">
<stop stop-color="#D018F5"/>
<stop offset="1" stop-color="#FA3296"/>
</linearGradient>
<linearGradient id="paint3_linear_200_1487" x1="413.147" y1="79.7636" x2="185.946" y2="-125.236" gradientUnits="userSpaceOnUse">
<stop stop-color="#D018F5"/>
<stop offset="1" stop-color="#FA3296"/>
</linearGradient>
<linearGradient id="paint4_linear_200_1487" x1="413.147" y1="79.7636" x2="185.946" y2="-125.236" gradientUnits="userSpaceOnUse">
<stop stop-color="#D018F5"/>
<stop offset="1" stop-color="#FA3296"/>
</linearGradient>
</defs>
</svg>
